{
  "accessors": [
    {
      "bufferView": 2,
      "componentType": 5126,
      "count": 1885,
      "max": [
        0.24612033367156982,
        0.9478440284729004,
        1.2542592287063599
      ],
      "min": [
        -1.334665298461914,
        -0.3212183117866516,
        -0.24269437789916992
      ],
      "type": "VEC3"
    },
    {
      "bufferView": 2,
      "byteOffset": 22620,
      "componentType": 5126,
      "count": 1885,
      "max": [
        0.9993327856063843,
        0.9938578009605408,
        0.9991461038589478
      ],
      "min": [
        -0.9957610368728638,
        -0.9979067444801331,
        -0.9929801225662231
      ],
      "type": "VEC3"
    },
    {
      "bufferView": 3,
      "componentType": 5126,
      "count": 1885,
      "max": [
        0.997327983379364,
        0.9985509514808655,
        0.997930109500885,
        1.0
      ],
      "min": [
        -0.9996959567070007,
        -0.9995017647743225,
        -0.9958441853523254,
        -1.0
      ],
      "type": "VEC4"
    },
    {
      "bufferView": 1,
      "componentType": 5126,
      "count": 1885,
      "max": [
        1.0,
        1.0
      ],
      "min": [
        0.0,
        0.0
      ],
      "type": "VEC2"
    },
    {
      "bufferView": 0,
      "componentType": 5125,
      "count": 4083,
      "type": "SCALAR"
    },
    {
      "bufferView": 2,
      "byteOffset": 45240,
      "componentType": 5126,
      "count": 3421,
      "max": [
        1.0149372816085815,
        1.0173304080963135,
        0.10036669671535492
      ],
      "min": [
        -1.0272696018218994,
        -1.014387845993042,
        -0.3098032772541046
      ],
      "type": "VEC3"
    },
    {
      "bufferView": 2,
      "byteOffset": 86292,
      "componentType": 5126,
      "count": 3421,
      "max": [
        0.8937231302261353,
        0.8896642327308655,
        0.9999988079071045
      ],
      "min": [
        -0.9314222931861877,
        -0.9175140857696533,
        -0.936079204082489
      ],
      "type": "VEC3"
    },
    {
      "bufferView": 1,
      "byteOffset": 15080,
      "componentType": 5126,
      "count": 3421,
      "max": [
        0.9932637214660645,
        0.8802338242530823
      ],
      "min": [
        0.015707360580563545,
        0.003345280885696411
      ],
      "type": "VEC2"
    },
    {
      "bufferView": 0,
      "byteOffset": 16332,
      "componentType": 5125,
      "count": 18612,
      "type": "SCALAR"
    },
    {
      "bufferView": 2,
      "byteOffset": 127344,
      "componentType": 5126,
      "count": 18847,
      "max": [
        5.152057647705078,
        9.29023265838623,
        10.718048095703125
      ],
      "min": [
        -6.545895576477051,
        -2.8353004455566406,
        -2.261791229248047
      ],
      "type": "VEC3"
    },
    {
      "bufferView": 2,
      "byteOffset": 353508,
      "componentType": 5126,
      "count": 18847,
      "max": [
        0.9998634457588196,
        0.9995636343955994,
        0.99995356798172
      ],
      "min": [
        -0.9995692372322083,
        -0.9991454482078552,
        -0.999718964099884
      ],
      "type": "VEC3"
    },
    {
      "bufferView": 3,
      "byteOffset": 30160,
      "componentType": 5126,
      "count": 18847,
      "max": [
        0.999275267124176,
        0.9999872446060181,
        0.9999542236328125,
        1.0
      ],
      "min": [
        -0.9998610019683838,
        -0.9999938011169434,
        -0.9999215006828308,
        -1.0
      ],
      "type": "VEC4"
    },
    {
      "bufferView": 1,
      "byteOffset": 42448,
      "componentType": 5126,
      "count": 18847,
      "max": [
        1.0,
        1.0
      ],
      "min": [
        0.0,
        0.0
      ],
      "type": "VEC2"
    },
    {
      "bufferView": 0,
      "byteOffset": 90780,
      "componentType": 5125,
      "count": 27864,
      "type": "SCALAR"
    },
    {
      "bufferView": 2,
      "byteOffset": 579672,
      "componentType": 5126,
      "count": 1554,
      "max": [
        2.382607936859131,
        0.9663060307502747,
        1.6263262033462524
      ],
      "min": [
        -0.18811330199241638,
        -1.6995790004730225,
        -0.04487815126776695
      ],
      "type": "VEC3"
    },
    {
      "bufferView": 2,
      "byteOffset": 598320,
      "componentType": 5126,
      "count": 1554,
      "max": [
        0.9910724759101868,
        0.9998108744621277,
        0.994437038898468
      ],
      "min": [
        -0.9930535554885864,
        -0.9992873072624207,
        -0.9931043982505798
      ],
      "type": "VEC3"
    },
    {
      "bufferView": 3,
      "byteOffset": 331712,
      "componentType": 5126,
      "count": 1554,
      "max": [
        0.9975836873054504,
        0.9987426400184631,
        0.9874448180198669,
        1.0
      ],
      "min": [
        -0.9524781107902527,
        -0.9971311092376709,
        -0.9995213150978088,
        1.0
      ],
      "type": "VEC4"
    },
    {
      "bufferView": 1,
      "byteOffset": 193224,
      "componentType": 5126,
      "count": 1554,
      "max": [
        0.8761622905731201,
        1.0
      ],
      "min": [
        0.0,
        0.0
      ],
      "type": "VEC2"
    },
    {
      "bufferView": 1,
      "byteOffset": 205656,
      "componentType": 5126,
      "count": 1554,
      "max": [
        0.8761622905731201,
        1.0
      ],
      "min": [
        0.0,
        0.0
      ],
      "type": "VEC2"
    },
    {
      "bufferView": 1,
      "byteOffset": 218088,
      "componentType": 5126,
      "count": 1554,
      "max": [
        0.8761622905731201,
        1.0
      ],
      "min": [
        0.0,
        0.0
      ],
      "type": "VEC2"
    },
    {
      "bufferView": 0,
      "byteOffset": 202236,
      "componentType": 5125,
      "count": 1554,
      "type": "SCALAR"
    },
    {
      "bufferView": 2,
      "byteOffset": 616968,
      "componentType": 5126,
      "count": 3593,
      "max": [
        11.196168899536133,
        17.577045440673828,
        7.526655197143555
      ],
      "min": [
        -2.095989942550659,
        -6.289595603942871,
        -6.373353004455566
      ],
      "type": "VEC3"
    },
    {
      "bufferView": 2,
      "byteOffset": 660084,
      "componentType": 5126,
      "count": 3593,
      "max": [
        0.9997894167900085,
        0.9998255372047424,
        0.9939245581626892
      ],
      "min": [
        -0.9997397661209106,
        -0.9985584616661072,
        -0.9831706881523132
      ],
      "type": "VEC3"
    },
    {
      "bufferView": 3,
      "byteOffset": 356576,
      "componentType": 5126,
      "count": 3593,
      "max": [
        0.9998074173927307,
        0.9996433258056641,
        0.9993231296539307,
        1.0
      ],
      "min": [
        -0.9996234178543091,
        -0.9982802867889404,
        -0.9799148440361023,
        -1.0
      ],
      "type": "VEC4"
    },
    {
      "bufferView": 1,
      "byteOffset": 230520,
      "componentType": 5126,
      "count": 3593,
      "max": [
        0.9890528917312622,
        0.9977631568908691
      ],
      "min": [
        -0.006231517065316439,
        0.11044412851333618
      ],
      "type": "VEC2"
    },
    {
      "bufferView": 0,
      "byteOffset": 208452,
      "componentType": 5125,
      "count": 5055,
      "type": "SCALAR"
    }
  ],
  "asset": {
    "extras": {
      "author": "Eleventh (https://sketchfab.com/elevement)",
      "license": "CC-BY-4.0 (http://creativecommons.org/licenses/by/4.0/)",
      "source": "https://sketchfab.com/3d-models/mountain-tree-a2897f5711464807bee00e61d26bf8dc",
      "title": "Mountain Tree"
    },
    "generator": "Sketchfab-16.33.0",
    "version": "2.0"
  },
  "bufferViews": [
    {
      "buffer": 0,
      "byteLength": 228672,
      "name": "floatBufferViews",
      "target": 34963
    },
    {
      "buffer": 0,
      "byteLength": 259264,
      "byteOffset": 228672,
      "byteStride": 8,
      "name": "floatBufferViews",
      "target": 34962
    },
    {
      "buffer": 0,
      "byteLength": 703200,
      "byteOffset": 487936,
      "byteStride": 12,
      "name": "floatBufferViews",
      "target": 34962
    },
    {
      "buffer": 0,
      "byteLength": 414064,
      "byteOffset": 1191136,
      "byteStride": 16,
      "name": "floatBufferViews",
      "target": 34962
    }
  ],
  "buffers": [
    {
      "byteLength": 1605200,
      "uri": "scene.bin"
    }
  ],
  "extensionsRequired": [
    "KHR_materials_pbrSpecularGlossiness"
  ],
  "extensionsUsed": [
    "KHR_materials_pbrSpecularGlossiness"
  ],
  "images": [
    {
      "uri": "textures/pien_diffuse.jpeg"
    },
    {
      "uri": "textures/pien_normal.png"
    },
    {
      "uri": "textures/stand_diffuse.png"
    },
    {
      "uri": "textures/liscie_diffuse.png"
    },
    {
      "uri": "textures/liscie_normal.png"
    },
    {
      "uri": "textures/glaz_diffuse.jpeg"
    },
    {
      "uri": "textures/glaz_specularGlossiness.png"
    },
    {
      "uri": "textures/glaz_normal.png"
    },
    {
      "uri": "textures/details_diffuse.png"
    },
    {
      "uri": "textures/details_normal.png"
    }
  ],
  "materials": [
    {
      "doubleSided": true,
      "extensions": {
        "KHR_materials_pbrSpecularGlossiness": {
          "diffuseFactor": [
            1.0,
            1.0,
            1.0,
            1.0
          ],
          "diffuseTexture": {
            "index": 0
          },
          "glossinessFactor": 0.0923934118,
          "specularFactor": [
            0.0,
            0.0,
            0.0
          ]
        }
      },
      "name": "pien",
      "normalTexture": {
        "index": 1
      }
    },
    {
      "doubleSided": true,
      "extensions": {
        "KHR_materials_pbrSpecularGlossiness": {
          "diffuseFactor": [
            1.0,
            1.0,
            1.0,
            1.0
          ],
          "diffuseTexture": {
            "index": 2
          },
          "glossinessFactor": 0.1310100677,
          "specularFactor": [
            0.0,
            0.0,
            0.0
          ]
        }
      },
      "name": "stand"
    },
    {
      "alphaCutoff": 0.43123940949153367,
      "alphaMode": "MASK",
      "doubleSided": true,
      "extensions": {
        "KHR_materials_pbrSpecularGlossiness": {
          "diffuseFactor": [
            1.0,
            1.0,
            1.0,
            1.0
          ],
          "diffuseTexture": {
            "index": 3
          },
          "glossinessFactor": 0.1281270081,
          "specularFactor": [
            0.0,
            0.0,
            0.0
          ]
        }
      },
      "name": "liscie",
      "normalTexture": {
        "index": 4
      }
    },
    {
      "doubleSided": true,
      "extensions": {
        "KHR_materials_pbrSpecularGlossiness": {
          "diffuseFactor": [
            1.0,
            1.0,
            1.0,
            1.0
          ],
          "diffuseTexture": {
            "index": 5
          },
          "glossinessFactor": 1.0,
          "specularFactor": [
            0.0,
            0.0,
            0.0
          ],
          "specularGlossinessTexture": {
            "index": 6
          }
        }
      },
      "name": "glaz",
      "normalTexture": {
        "index": 7
      }
    },
    {
      "alphaCutoff": 0.2118101693262303,
      "alphaMode": "MASK",
      "doubleSided": true,
      "extensions": {
        "KHR_materials_pbrSpecularGlossiness": {
          "diffuseFactor": [
            0.8579073765,
            0.8579073765,
            0.8579073765,
            1.0
          ],
          "diffuseTexture": {
            "index": 8
          },
          "glossinessFactor": 0.3310455803,
          "specularFactor": [
            0.0,
            0.0,
            0.0
          ]
        }
      },
      "name": "details",
      "normalTexture": {
        "index": 9
      }
    }
  ],
  "meshes": [
    {
      "name": "Tree_low_poly.001_pien_0",
      "primitives": [
        {
          "attributes": {
            "NORMAL": 1,
            "POSITION": 0,
            "TANGENT": 2,
            "TEXCOORD_0": 3
          },
          "indices": 4,
          "material": 0,
          "mode": 4
        }
      ]
    },
    {
      "name": "Plane_stand_0",
      "primitives": [
        {
          "attributes": {
            "NORMAL": 6,
            "POSITION": 5,
            "TEXCOORD_0": 7
          },
          "indices": 8,
          "material": 1,
          "mode": 4
        }
      ]
    },
    {
      "name": "Plane.012_liscie_0",
      "primitives": [
        {
          "attributes": {
            "NORMAL": 10,
            "POSITION": 9,
            "TANGENT": 11,
            "TEXCOORD_0": 12
          },
          "indices": 13,
          "material": 2,
          "mode": 4
        }
      ]
    },
    {
      "name": "Cube.028_glaz_0",
      "primitives": [
        {
          "attributes": {
            "NORMAL": 15,
            "POSITION": 14,
            "TANGENT": 16,
            "TEXCOORD_0": 17,
            "TEXCOORD_1": 18,
            "TEXCOORD_2": 19
          },
          "indices": 20,
          "material": 3,
          "mode": 4
        }
      ]
    },
    {
      "name": "Plane.021_details_0",
      "primitives": [
        {
          "attributes": {
            "NORMAL": 22,
            "POSITION": 21,
            "TANGENT": 23,
            "TEXCOORD_0": 24
          },
          "indices": 25,
          "material": 4,
          "mode": 4
        }
      ]
    }
  ],
  "nodes": [
    {
      "children": [
        1
      ],
      "matrix": [
        1.0,
        0.0,
        0.0,
        0.0,
        0.0,
        2.220446049250313e-16,
        -1.0,
        0.0,
        0.0,
        1.0,
        2.220446049250313e-16,
        0.0,
        0.0,
        0.0,
        0.0,
        1.0
      ],
      "name": "Sketchfab_model"
    },
    {
      "children": [
        2
      ],
      "matrix": [
        0.009999999776482582,
        0.0,
        0.0,
        0.0,
        0.0,
        0.0,
        0.009999999776482582,
        0.0,
        0.0,
        -0.009999999776482582,
        0.0,
        0.0,
        0.0,
        0.0,
        0.0,
        1.0
      ],
      "name": "de884b93d8234ea4a669c932b2f014cb.fbx"
    },
    {
      "children": [
        3,
        5,
        7,
        9,
        11
      ],
      "name": "RootNode"
    },
    {
      "children": [
        4
      ],
      "matrix": [
        90.67002874413961,
        -33.395620765394526,
        25.76195647133278,
        0.0,
        25.687795968488356,
        -4.721068378458009,
        -96.52901210271554,
        0.0,
        33.452699838806424,
        94.14055465345861,
        4.298004540934586,
        0.0,
        -4.614004611968994,
        41.70947265625,
        7.408727645874023,
        1.0
      ],
      "name": "Tree_low_poly.001"
    },
    {
      "mesh": 0,
      "name": "Tree_low_poly.001_pien_0"
    },
    {
      "children": [
        6
      ],
      "matrix": [
        13.050029175682322,
        6.645648429938467,
        45.226755108362205,
        0.0,
        45.71239820843521,
        -1.8972123079050536,
        -12.91138227617907,
        0.0,
        5.2396524786987105e-06,
        47.03364304885626,
        -6.911155215770568,
        0.0,
        8.418837547302246,
        26.304960250854492,
        -2.5551304817199707,
        1.0
      ],
      "name": "Plane"
    },
    {
      "mesh": 1,
      "name": "Plane_stand_0"
    },
    {
      "children": [
        8
      ],
      "matrix": [
        6.697843284642251,
        -4.730025002519794,
        -13.321198835010723,
        -0.0,
        11.900000905011316,
        -4.403119515352971,
        7.546708655181498,
        -0.0,
        5.2425134463742555,
        11.61670092624672,
        -1.4888864427404465,
        -0.0,
        -99.8095932006836,
        89.01376342773438,
        -72.27859497070313,
        1.0
      ],
      "name": "Plane.012"
    },
    {
      "mesh": 2,
      "name": "Plane.012_liscie_0"
    },
    {
      "children": [
        10
      ],
      "matrix": [
        -5.934683871674888,
        18.85269734568437,
        23.147702409340475,
        0.0,
        -28.72357897090895,
        2.8260376452587406,
        -9.665917995330828,
        0.0,
        -8.136093450963843,
        -23.728675419146644,
        17.23991376994064,
        0.0,
        -12.771947860717773,
        25.609224319458008,
        -29.52006721496582,
        1.0
      ],
      "name": "Cube.028"
    },
    {
      "mesh": 3,
      "name": "Cube.028_glaz_0"
    },
    {
      "children": [
        12
      ],
      "matrix": [
        8.023832621032872,
        -7.613550243594963e-08,
        -5.648252915028979,
        0.0,
        -2.783488830066915,
        5.293849801655661,
        -3.954187111309066,
        0.0,
        3.234950239003539,
        5.133508235156642,
        4.5955270160134605,
        0.0,
        -26.949552536010742,
        30.17302703857422,
        18.791515350341797,
        1.0
      ],
      "name": "Plane.021"
    },
    {
      "mesh": 4,
      "name": "Plane.021_details_0"
    }
  ],
  "samplers": [
    {
      "magFilter": 9729,
      "minFilter": 9987,
      "wrapS": 10497,
      "wrapT": 10497
    }
  ],
  "scene": 0,
  "scenes": [
    {
      "name": "Sketchfab_Scene",
      "nodes": [
        0
      ]
    }
  ],
  "textures": [
    {
      "sampler": 0,
      "source": 0
    },
    {
      "sampler": 0,
      "source": 1
    },
    {
      "sampler": 0,
      "source": 2
    },
    {
      "sampler": 0,
      "source": 3
    },
    {
      "sampler": 0,
      "source": 4
    },
    {
      "sampler": 0,
      "source": 5
    },
    {
      "sampler": 0,
      "source": 6
    },
    {
      "sampler": 0,
      "source": 7
    },
    {
      "sampler": 0,
      "source": 8
    },
    {
      "sampler": 0,
      "source": 9
    }
  ]
}
